<svg width="113" height="22" viewBox="0 0 113 22" fill="none" xmlns="http://www.w3.org/2000/svg">
<path d="M17.5 14.3333V7.66666C17.4997 7.37439 17.4225 7.08733 17.2763 6.83429C17.13 6.58125 16.9198 6.37113 16.6667 6.22499L10.8333 2.89166C10.58 2.74538 10.2926 2.66837 10 2.66837C9.70744 2.66837 9.42003 2.74538 9.16667 2.89166L3.33333 6.22499C3.08022 6.37113 2.86998 6.58125 2.72372 6.83429C2.57745 7.08733 2.5003 7.37439 2.5 7.66666V14.3333C2.5003 14.6256 2.57745 14.9126 2.72372 15.1657C2.86998 15.4187 3.08022 15.6289 3.33333 15.775L9.16667 19.1083C9.42003 19.2546 9.70744 19.3316 10 19.3316C10.2926 19.3316 10.58 19.2546 10.8333 19.1083L16.6667 15.775C16.9198 15.6289 17.13 15.4187 17.2763 15.1657C17.4225 14.9126 17.4997 14.6256 17.5 14.3333Z" stroke="white" stroke-width="2" stroke-linecap="round" stroke-linejoin="round"/>
<path d="M31.9287 17.1758C31.5068 17.1758 31.0908 17.1582 30.6807 17.123C30.2705 17.0938 29.8545 17.0527 29.4326 17L30.1533 15.2949C30.4639 15.4414 30.8066 15.5293 31.1816 15.5586C31.5566 15.582 31.9287 15.5938 32.2979 15.5938C33.417 15.5938 34.2812 15.2568 34.8906 14.583C35.5059 13.9092 35.8135 12.957 35.8135 11.7266C35.8135 10.8828 35.626 10.2324 35.251 9.77539C34.8818 9.31836 34.3545 9.08984 33.6689 9.08984C32.0869 9.08984 31.2959 9.98047 31.2959 11.7617L30.751 9.37109H31.4717C31.5596 8.12891 32.3213 7.50781 33.7568 7.50781C34.999 7.50781 35.96 7.87402 36.6396 8.60645C37.3193 9.33887 37.6592 10.3789 37.6592 11.7266C37.6592 13.4551 37.1582 14.7969 36.1562 15.752C35.1602 16.7012 33.751 17.1758 31.9287 17.1758ZM29.4326 17V3.81641H31.2959V16.8418L29.4326 17ZM46.209 17.1758C45.1309 17.1758 44.3516 16.8828 43.8711 16.2969C43.3906 15.7109 43.1504 14.7734 43.1504 13.4844V3.81641H45.0137V13.3965C45.0137 13.8887 45.0605 14.29 45.1543 14.6006C45.248 14.9111 45.4297 15.1396 45.6992 15.2861C45.9746 15.4326 46.3789 15.5059 46.9121 15.5059C47.3984 15.5059 48.0195 15.3945 48.7754 15.1719L48.9863 16.8066C48.5117 16.9355 48.0547 17.0293 47.6152 17.0879C47.1816 17.1465 46.7129 17.1758 46.209 17.1758ZM40.4082 5.45117V3.81641H43.3086V5.45117H40.4082ZM56.0508 17V8.21094H57.9141V17H56.0508ZM52.5 17V15.3652H56.2266V17H52.5ZM57.7383 17V15.3652H60.7793V17H57.7383ZM53.0273 9.31836V7.68359H57.9141V9.31836H53.0273ZM56.9209 6.20703C56.5635 6.20703 56.2559 6.08105 55.998 5.8291C55.7461 5.57129 55.6201 5.26367 55.6201 4.90625C55.6201 4.54297 55.7461 4.23535 55.998 3.9834C56.2559 3.73145 56.5635 3.60547 56.9209 3.60547C57.2842 3.60547 57.5918 3.73145 57.8438 3.9834C58.0957 4.23535 58.2217 4.54297 58.2217 4.90625C58.2217 5.26367 58.0957 5.57129 57.8438 5.8291C57.5918 6.08105 57.2842 6.20703 56.9209 6.20703ZM64.1172 21.043V7.68359H65.8047L65.9805 9.65234V21.043H64.1172ZM68.626 17.1758C67.9111 17.1758 67.334 17.0117 66.8945 16.6836C66.4609 16.3555 66.2148 15.8984 66.1562 15.3125H65.3477L65.9805 12.6582C65.9805 13.6191 66.168 14.3486 66.543 14.8467C66.9238 15.3447 67.4805 15.5938 68.2129 15.5938C68.9629 15.5938 69.5312 15.3271 69.918 14.7939C70.3047 14.2607 70.498 13.4727 70.498 12.4297C70.498 11.3281 70.3047 10.4961 69.918 9.93359C69.5312 9.37109 68.9629 9.08984 68.2129 9.08984C67.4805 9.08984 66.9238 9.33887 66.543 9.83691C66.168 10.335 65.9805 11.0645 65.9805 12.0254L65.3477 9.37109H66.0684C66.1504 8.78516 66.4141 8.32812 66.8594 8C67.3105 7.67188 67.8994 7.50781 68.626 7.50781C69.8506 7.50781 70.7764 7.92383 71.4033 8.75586C72.0303 9.58789 72.3438 10.8125 72.3438 12.4297C72.3438 13.9883 72.0303 15.1689 71.4033 15.9717C70.7764 16.7744 69.8506 17.1758 68.626 17.1758ZM79.2324 17.1758C77.8613 17.1758 76.8037 16.7949 76.0596 16.0332C75.3154 15.2656 74.9434 14.1934 74.9434 12.8164H76.7715C76.7715 13.6953 76.9883 14.3779 77.4219 14.8643C77.8613 15.3506 78.4795 15.5938 79.2764 15.5938C80.0498 15.5938 80.6445 15.3535 81.0605 14.873C81.4824 14.3867 81.6934 13.7012 81.6934 12.8164V4.51953H83.5215V12.8164C83.5215 14.1992 83.1436 15.2715 82.3877 16.0332C81.6318 16.7949 80.5801 17.1758 79.2324 17.1758ZM78.4941 6.18945V4.51953H82.5898V6.18945H78.4941ZM92.9238 17.0879L92.8008 14.3281L92.5547 13.5547V11.1465C92.5547 10.5254 92.335 10.0713 91.8955 9.78418C91.4619 9.49121 90.8145 9.33301 89.9531 9.30957L87.7207 9.24805L87.8965 7.5957L89.7773 7.62207C91.3184 7.64551 92.4609 7.97949 93.2051 8.62402C93.9551 9.2627 94.3301 10.1973 94.3301 11.4277V15.3125L95.9121 15.5059V17L92.9238 17.0879ZM89.6367 17.1758C88.6641 17.1758 87.9111 16.9414 87.3779 16.4727C86.8447 16.0039 86.5781 15.3418 86.5781 14.4863C86.5781 13.502 86.9443 12.7461 87.6768 12.2188C88.415 11.6914 89.4551 11.4277 90.7969 11.4277C91.3535 11.4277 91.8486 11.4629 92.2822 11.5332C92.7217 11.5977 93.1113 11.6973 93.4512 11.832L93.0645 13.0977C92.6719 13.0098 92.2881 12.96 91.9131 12.9482C91.5381 12.9307 91.1543 12.9219 90.7617 12.9219C89.1445 12.9219 88.3359 13.4141 88.3359 14.3984C88.3359 14.8086 88.4736 15.125 88.749 15.3477C89.0303 15.5703 89.4258 15.6816 89.9355 15.6816C90.5156 15.6816 90.999 15.582 91.3857 15.3828C91.7783 15.1836 92.0713 14.9287 92.2646 14.6182C92.458 14.3076 92.5547 13.9883 92.5547 13.6602V12.6406L93.0996 15.0312H92.3613L92.6602 14.75C92.6602 15.2891 92.5342 15.7402 92.2822 16.1035C92.0361 16.4609 91.6875 16.7305 91.2363 16.9121C90.7852 17.0879 90.252 17.1758 89.6367 17.1758ZM101.922 12.9922L101.377 10.0742H102.098C102.203 8.36328 103.059 7.50781 104.664 7.50781C105.625 7.50781 106.322 7.7832 106.756 8.33398C107.189 8.88477 107.406 9.77539 107.406 11.0059H105.561C105.561 10.3262 105.458 9.83691 105.253 9.53809C105.054 9.23926 104.729 9.08984 104.277 9.08984C103.486 9.08984 102.895 9.42969 102.502 10.1094C102.115 10.7832 101.922 11.7441 101.922 12.9922ZM97.9844 17V15.3652H104.207V17H97.9844ZM100.059 17V7.68359H101.57L101.922 10.3555V17H100.059ZM98.3359 9.31836V7.68359H101.447L101.623 9.31836H98.3359Z" fill="white"/>
</svg>
